<?xml version="1.0" encoding="UTF-8"?>
<svg id="Layer_1" xmlns="http://www.w3.org/2000/svg" viewBox="0 0 299.14 261.19">
  <defs>
    <style>
      .cls-1 {
        fill: none;
        stroke-width: 12px;
      }

      .cls-1, .cls-2 {
        stroke: #b72025;
        stroke-miterlimit: 10;
      }

      .cls-2 {
        fill: #b72025;
        stroke-width: 8px;
      }
    </style>
  </defs>
  <path class="cls-1" d="M115.4,87.95S100.93-8.82,163.51,7.95c62.58,16.77,30.97,80.65,30.97,80.65,0,0,49.03-45.16,89.68,0s-69.77,57.45-69.77,57.45c0,0,83.97,23.84,53,62.55s-62.39,61.86-100.46-18.14c0,0,2.39,90.48-82.12,57.49-75.71-29.55-6.45-70.32,11.61-83.23,2.02-1.44-110.97.65-87.1-56.13,23.87-56.77,106.08-20.65,106.08-20.65Z"/>
  <ellipse class="cls-2" cx="149.96" cy="138.16" rx="66.06" ry="55.68"/>
</svg>